HIERARCHY
ROOT root
{
  OFFSET 0 98.6856 0
  CHANNELS 6 Xposition Yposition Zposition Zrotation Xrotation Yrotation
  JOINT torso_1
  {
    OFFSET 0 5.37224 -1.21793
    CHANNELS 6 Xposition Yposition Zposition Zrotation Xrotation Yrotation
    JOINT torso_2
    {
      OFFSET 0 5.94127 1.13336
      CHANNELS 6 Xposition Yposition Zposition Zrotation Xrotation Yrotation
      JOINT torso_3
      {
        OFFSET -1.08535e-17 6.33601 0.121658
        CHANNELS 6 Xposition Yposition Zposition Zrotation Xrotation Yrotation
        JOINT torso_4
        {
          OFFSET -1.16841e-17 6.88189 -0.46916
          CHANNELS 6 Xposition Yposition Zposition Zrotation Xrotation Yrotation
          JOINT torso_5
          {
            OFFSET -2.08699e-17 8.0451 -1.59297
            CHANNELS 6 Xposition Yposition Zposition Zrotation Xrotation Yrotation
            JOINT torso_6
            {
              OFFSET -2.67949e-17 10.0463 -0.967353
              CHANNELS 6 Xposition Yposition Zposition Zrotation Xrotation Yrotation
              JOINT torso_7
              {
                OFFSET -3.07187e-17 11.1612 1.66806
                CHANNELS 6 Xposition Yposition Zposition Zrotation Xrotation Yrotation
                JOINT neck_1
                {
                  OFFSET -1.36661e-17 5.06312 0.756688
                  CHANNELS 6 Xposition Yposition Zposition Zrotation Xrotation Yrotation
                  JOINT neck_2
                  {
                    OFFSET -1.91632e-17 5.09976 0.446172
                    CHANNELS 6 Xposition Yposition Zposition Zrotation Xrotation Yrotation
                    JOINT head
                    {
                      OFFSET -2.12574e-17 5.10962 0.809285
                      CHANNELS 6 Xposition Yposition Zposition Zrotation Xrotation Yrotation
                      End Site
                      {
                        OFFSET 0 0.1 0
                      }
                    }
                  }
                }
                JOINT l_shoulder
                {
                  OFFSET 1.30426 -8.04703 7.96922
                  CHANNELS 6 Xposition Yposition Zposition Zrotation Xrotation Yrotation
                  JOINT l_up_arm
                  {
                    OFFSET 13.7035 3.43734 -3.45766
                    CHANNELS 6 Xposition Yposition Zposition Zrotation Xrotation Yrotation
                    JOINT l_low_arm
                    {
                      OFFSET 30.8964 0.0632652 0.14496
                      CHANNELS 6 Xposition Yposition Zposition Zrotation Xrotation Yrotation
                      JOINT l_hand
                      {
                        OFFSET 25.6348 0.0524902 0.120274
                        CHANNELS 6 Xposition Yposition Zposition Zrotation Xrotation Yrotation
                        End Site
                        {
                          OFFSET 0.1 0 0
                        }
                      }
                    }
                  }
                }
                JOINT r_shoulder
                {
                  OFFSET -1.30426 -8.04702 7.96912
                  CHANNELS 6 Xposition Yposition Zposition Zrotation Xrotation Yrotation
                  JOINT r_up_arm
                  {
                    OFFSET -13.7035 3.43734 -3.45766
                    CHANNELS 6 Xposition Yposition Zposition Zrotation Xrotation Yrotation
                    JOINT r_low_arm
                    {
                      OFFSET -30.8964 0.0632652 0.14496
                      CHANNELS 6 Xposition Yposition Zposition Zrotation Xrotation Yrotation
                      JOINT r_hand
                      {
                        OFFSET -25.6348 0.0524901 0.120274
                        CHANNELS 6 Xposition Yposition Zposition Zrotation Xrotation Yrotation
                        End Site
                        {
                          OFFSET -0.1 0 0
                        }
                      }
                    }
                  }
                }
              }
            }
          }
        }
      }
    }
  }
  JOINT l_up_leg
  {
    OFFSET 9.77065 -4.44866 2.1502
    CHANNELS 6 Xposition Yposition Zposition Zrotation Xrotation Yrotation
    JOINT l_low_leg
    {
      OFFSET -0.901622 -41.0132 -0.693059
      CHANNELS 6 Xposition Yposition Zposition Zrotation Xrotation Yrotation
      JOINT l_foot
      {
        OFFSET -2.46068 -42.7371 -6.39839
        CHANNELS 6 Xposition Yposition Zposition Zrotation Xrotation Yrotation
        JOINT l_toes
        {
          OFFSET 0.82413 -10.4558 13.2182
          CHANNELS 6 Xposition Yposition Zposition Zrotation Xrotation Yrotation
          End Site
          {
            OFFSET 0 0 0.1
          }
        }
      }
    }
  }
  JOINT r_up_leg
  {
    OFFSET -9.77065 -4.44866 2.1502
    CHANNELS 6 Xposition Yposition Zposition Zrotation Xrotation Yrotation
    JOINT r_low_leg
    {
      OFFSET 0.901622 -41.0132 -0.693059
      CHANNELS 6 Xposition Yposition Zposition Zrotation Xrotation Yrotation
      JOINT r_foot
      {
        OFFSET 2.46068 -42.7371 -6.39839
        CHANNELS 6 Xposition Yposition Zposition Zrotation Xrotation Yrotation
        JOINT r_toes
        {
          OFFSET -0.82413 -10.4558 13.2182
          CHANNELS 6 Xposition Yposition Zposition Zrotation Xrotation Yrotation
          End Site
          {
            OFFSET 0 0 0.1
          }
        }
      }
    }
  }
}
MOTION
Frames: 4
Frame Time: 0.02
12.6245 79.9039 -27.2411 4.89804 -9.95381 5.50405 0 5.37224 -1.21793 -1.00563 9.17295 0.580546 0 5.94127 1.13336 -1.03101 7.97568 0.315556 -1.08535e-17 6.33601 0.121658 -0.817528 7.16035 0.3106 -1.16841e-17 6.88189 -0.46916 -0.582168 6.00149 0.369625 -2.08699e-17 8.0451 -1.59297 -0.292859 4.32581 0.567492 -2.67949e-17 10.0463 -0.967353 0.173233 3.73672 0.486573 -3.07187e-17 11.1612 1.66806 -0.00371152 0.0798844 0.00171718 -1.36661e-17 5.06312 0.756688 -1.00868 -22.9495 -1.49842 -1.91632e-17 5.09976 0.446172 -0.119749 -10.7303 -1.03408 -2.12574e-17 5.10962 0.809285 -1.58983 -4.50442 -5.95125 1.30426 -8.04703 7.96922 -3.87875 3.35459 -9.54834 13.7035 3.43734 -3.45766 -75.6399 10.9183 -28.251 30.8964 0.0632652 0.14496 1.60848 -0.100809 -7.7746 25.6348 0.0524902 0.120274 -3.49349 -25.7522 -11.2212 -1.30426 -8.04702 7.96912 6.11989 4.90865 10.2133 -13.7035 3.43734 -3.45766 62.8413 -5.18207 31.1008 -30.8964 0.0632652 0.14496 -3.49661 -0.506993 17.0851 -25.6348 0.0524901 0.120274 19.6037 -64.5061 19.2602 9.77065 -4.44866 2.1502 -3.7328 0.934085 -18.823 -0.901622 -41.0132 -0.693059 -11.5487 37.4249 3.24101 -2.46068 -42.7371 -6.39839 -0.914494 -7.84849 16.2677 0.82413 -10.4558 13.2182 8.44835e-16 -7.57867e-16 -2.48481e-17 -9.77065 -4.44866 2.1502 10.7496 -6.68368 31.9017 0.901622 -41.0132 -0.693059 24.7488 58.4304 -12.8376 2.46068 -42.7371 -6.39839 -19.6376 -27.8306 -18.1788 -0.82413 -10.4558 13.2182 5.96354e-16 -6.21202e-16 -1.27968e-14 
12.8263 79.3714 -27.5135 3.89084 -3.61803 3.42843 0 5.37224 -1.21793 -0.590014 5.77907 0.782343 0 5.94127 1.13336 -0.78442 5.32446 0.719141 -1.08535e-17 6.33601 0.121658 -0.719265 5.13057 0.73509 -1.16841e-17 6.88189 -0.46916 -0.660168 4.84183 0.790893 -2.08699e-17 8.0451 -1.59297 -0.39008 3.87751 1.03268 -2.67949e-17 10.0463 -0.967353 0.113294 3.41323 1.03832 -3.07187e-17 11.1612 1.66806 0.00308535 0.0745624 0.0143551 -1.36661e-17 5.06312 0.756688 -1.17189 -28.5165 -1.00877 -1.91632e-17 5.09976 0.446172 0.387403 -10.1243 -0.604657 -2.12574e-17 5.10962 0.809285 -3.15303 1.85983 -6.26534 1.30426 -8.04703 7.96922 -4.24585 4.53478 -10.0414 13.7035 3.43734 -3.45766 -68.7565 20.7177 -34.9445 30.8964 0.0632652 0.14496 3.2863 -0.445456 -16.0315 25.6348 0.0524902 0.120274 -7.15847 -34.5639 -11.7445 -1.30426 -8.04702 7.96912 6.69505 5.41325 11.0224 -13.7035 3.43734 -3.45766 56.3912 -6.10459 30.0445 -30.8964 0.0632652 0.14496 -6.26997 -1.7479 31.7185 -25.6348 0.0524901 0.120274 8.94268 -61.1588 7.54448 9.77065 -4.44866 2.1502 -3.74838 -2.843 -16.9349 -0.901622 -41.0132 -0.693059 -9.11894 31.0956 1.98301 -2.46068 -42.7371 -6.39839 -2.5746 -3.62404 16.2667 0.82413 -10.4558 13.2182 4.47266e-16 -7.82715e-16 3.05504e-33 -9.77065 -4.44866 2.1502 12.3205 -18.1147 32.8208 0.901622 -41.0132 -0.693059 33.3613 65.0782 -20.3091 2.46068 -42.7371 -6.39839 -17.235 -23.4631 -17.4205 -0.82413 -10.4558 13.2182 1.98785e-16 -5.96354e-16 -1.27719e-14 
13.0325 79.7919 -28.1553 6.21261 -13.0309 4.37319 0 5.37224 -1.21793 -0.717729 7.41998 0.846389 0 5.94127 1.13336 -0.980577 6.73112 0.804363 -1.08535e-17 6.33601 0.121658 -0.969919 6.18217 0.823007 -1.16841e-17 6.88189 -0.46916 -0.960962 5.46046 0.883678 -2.08699e-17 8.0451 -1.59297 -0.742645 4.00363 1.22266 -2.67949e-17 10.0463 -0.967353 -0.1847 3.1019 1.36882 -3.07187e-17 11.1612 1.66806 0.00529611 0.0684166 0.0189208 -1.36661e-17 5.06312 0.756688 -1.01804 -29.729 0.3824 -1.91632e-17 5.09976 0.446172 -0.53217 -9.34577 0.00744768 -2.12574e-17 5.10962 0.809285 -3.14882 6.17189 -9.04123 1.30426 -8.04703 7.96922 -2.93173 4.59505 -11.9761 13.7035 3.43734 -3.45766 -58.886 29.8696 -45.61 30.8964 0.0632652 0.14496 5.74275 -1.44395 -28.801 25.6348 0.0524902 0.120274 -4.04533 -45.5204 -4.81932 -1.30426 -8.04702 7.96912 5.61667 5.69224 13.5004 -13.7035 3.43734 -3.45766 49.1922 -7.25187 31.4886 -30.8964 0.0632652 0.14496 -7.91968 -2.96001 41.5272 -25.6348 0.0524901 0.120274 2.83306 -62.1068 0.96878 9.77065 -4.44866 2.1502 -6.22295 9.71264 -16.8457 -0.901622 -41.0132 -0.693059 -5.89113 21.2098 0.728819 -2.46068 -42.7371 -6.39839 -5.01122 5.74184 16.5135 0.82413 -10.4558 13.2182 3.23025e-15 -6.58474e-16 -1.2424e-16 -9.77065 -4.44866 2.1502 9.41984 -10.9315 29.3161 0.901622 -41.0132 -0.693059 35.2752 66.159 -22.0299 2.46068 -42.7371 -6.39839 -15.263 -20.8956 -16.6897 -0.82413 -10.4558 13.2182 1.98785e-16 -5.96354e-16 -1.27719e-14 
13.2062 83.3296 -28.7282 6.64692 -26.6235 6.02579 0 5.37224 -1.21793 -0.544003 10.0423 0.728358 0 5.94127 1.13336 -0.795679 9.18507 0.57317 -1.08535e-17 6.33601 0.121658 -0.857456 8.39759 0.5775 -1.16841e-17 6.88189 -0.46916 -0.905551 7.38519 0.624896 -2.08699e-17 8.0451 -1.59297 -0.915285 5.58028 1.00924 -2.67949e-17 10.0463 -0.967353 -0.557107 4.37587 1.304 -3.07187e-17 11.1612 1.66806 0.00508142 0.0515069 0.0165637 -1.36661e-17 5.06312 0.756688 -0.53369 -30.675 1.94485 -1.91632e-17 5.09976 0.446172 -1.5403 -8.86345 0.616674 -2.12574e-17 5.10962 0.809285 -0.295735 11.2379 -11.0264 1.30426 -8.04703 7.96922 -0.212446 2.36622 -13.607 13.7035 3.43734 -3.45766 -49.3287 32.5395 -55.569 30.8964 0.0632652 0.14496 8.76243 -3.77317 -47.1217 25.6348 0.0524902 0.120274 8.62168 -52.9704 10.5927 -1.30426 -8.04702 7.96912 2.60186 4.1356 15.2047 -13.7035 3.43734 -3.45766 41.9549 -9.57291 37.6107 -30.8964 0.0632652 0.14496 -8.61695 -3.62123 46.1169 -25.6348 0.0524901 0.120274 5.92408 -65.5131 3.29165 9.77065 -4.44866 2.1502 -6.10615 20.9305 -16.621 -0.901622 -41.0132 -0.693059 -7.64402 26.7828 1.34473 -2.46068 -42.7371 -6.39839 0.68517 -11.6859 16.8876 0.82413 -10.4558 13.2182 4.47266e-16 -7.82715e-16 3.05504e-33 -9.77065 -4.44866 2.1502 8.78791 5.34179 25.8748 0.901622 -41.0132 -0.693059 24.572 58.2541 -12.6905 2.46068 -42.7371 -6.39839 -12.6304 -19.5788 -16.1001 -0.82413 -10.4558 13.2182 -1.98785e-16 -5.8393e-16 -1.27595e-14 
